<?xml version="1.0" encoding="utf-8"?>
<!-- Generator: Adobe Illustrator 15.0.0, SVG Export Plug-In . SVG Version: 6.00 Build 0)  -->
<!DOCTYPE svg PUBLIC "-//W3C//DTD SVG 1.1//EN" "http://www.w3.org/Graphics/SVG/1.1/DTD/svg11.dtd">
<svg version="1.1" id="레이어_1" xmlns="http://www.w3.org/2000/svg" xmlns:xlink="http://www.w3.org/1999/xlink" x="0px"
	 y="0px" width="40px" height="40px" viewBox="0 0 40 40" enable-background="new 0 0 40 40" xml:space="preserve">
<g>
	<path d="M21.833,10.226V9.083h3.917v-2.5c0,0,0-1.667-1.5-1.75h-7c0,0-1.75,0.083-1.833,1.5V9l3.833,0.083v1.166
		C12.83,10.955,7.834,16.392,7.834,23c0,7.087,5.746,12.833,12.833,12.833c7.087,0,12.833-5.746,12.833-12.833
		C33.501,16.306,28.373,10.815,21.833,10.226z M20.668,32.333c-5.155,0-9.333-4.179-9.333-9.333c0-5.155,4.179-9.333,9.333-9.333
		c5.154,0,9.333,4.179,9.333,9.333C30.001,28.154,25.822,32.333,20.668,32.333z"/>
	<path d="M22.217,22.13c-0.086-0.1-0.182-0.198-0.3-0.297l-6.625-4.847c0,0-0.729-0.392-0.46,0.35l4.609,6.989
		c0.052,0.096,0.11,0.186,0.178,0.27l0.048,0.073c0,0,0.018,0.011,0.026,0.016c0.332,0.365,0.809,0.599,1.344,0.599
		c1.003,0,1.815-0.805,1.815-1.797C22.852,22.94,22.603,22.459,22.217,22.13z"/>
</g>
</svg>
